<?xml version="1.0" encoding="utf-8"?>

<svg version="1.1" id="logo" xmlns="http://www.w3.org/2000/svg" xmlns:xlink="http://www.w3.org/1999/xlink" x="0px" y="0px"
	viewBox="0 0 714 405" xml:space="preserve">

	<style type="text/css">

		#logo {
			width: 70vw;
			max-width: 668px;
		}

		.name path {
			fill: transparent;
			stroke: white;
			stroke-dasharray: 850; stroke-dashoffset: 850;
			animation: drawing 2s ease forwards;
			filter: drop-shadow(1px 2px 4px rgba(0,0,0, .6));
		}

		.name path:nth-child(2) { animation-delay: .25s; }
		.name path:nth-child(3) { animation-delay: .5s; }
		.name path:nth-child(4) { animation-delay: .75s; }
		.name path:nth-child(5) { animation-delay: 1s; }
		.name path:nth-child(6) { animation-delay: 1.25s; }
		.name path:nth-child(7) { animation-delay: 1.5s; }
		.name path:nth-child(8) { animation-delay: 1.75s; }
		.name path:nth-child(9) { animation-delay: 2s; }
		.name path:nth-child(10) { animation-delay: 2.25s; }
		.name path:nth-child(11) { animation-delay: 2.5s; }
		.name path:nth-child(12) { animation-delay: 2.75s; }
		.name path:nth-child(13) { animation-delay: 3s; }
		.name path:nth-child(14) { animation-delay: 3.25s; }

		@-webkit-keyframes drawing {
			30% { fill: transparent; }
			80% { stroke-dashoffset: 0; }
			100% { fill: white; }
		}

	</style>

	<g class="name">
		<path d="M302.3,175.5c3.7,0.5,5.7,5,4.9,8.4c-1,3.8-4.7,5.2-8.4,4.7c-16.9-2.3-33.6-6.8-49.6-12.9c-9.4-3.5-18.8-8.2-28.5-11.3c-5.7,9.6-12.9,18.6-22.1,23.8c-6.3,3.7-14.1,5.7-21.1,3c-7-2.8-11.5-9.6-11.3-17.1c0.5-16.4,16.9-25.4,31.3-26.6c5-0.5,10.1-0.2,15.1,0.7c11.3-21.4,17.7-46.3,21.1-69.6c2.4-17.7,7-53.1-15.3-61.1c-11.7-4.2-24.4,2.4-32.4,10.6c-9.6,9.9-14.6,23-20.2,35.3c-1.4,3-5.7,0.9-5-2.1c4.3-17.4,10.4-36.7,25.2-48.2C199.3,2.9,217.9-0.6,232,9.9c25.6,18.8,18.6,60.5,13.4,87c-3.7,18.3-9.4,36-17.1,52.9c-0.3,0.9-0.9,1.7-1.4,2.6c7,2.4,13.7,5.4,20.2,8c17.9,7.3,36.4,12,55.3,15.1H302.3z M205,160.9c-0.2,0-0.3,0-0.5,0c-6.4-0.5-13.9,0.2-19.1,4.3c-2.6,2.1-6.8,7.3-4.9,10.8c2.6,4.7,10.6-0.2,13.2-2.1C198.2,170.5,201.9,165.6,205,160.9z"/>
		<path d="M347.9,119.3c0.5,1.6,0.2,3.1-1,4.2c-4.5,4-10.8,7-18.6,8.9c-1.2,4.5-2.8,8.9-4.7,12.9c-4.9,9.9-16.2,24.7-27.8,24.7c-3,0-5.7-0.9-8.4-2.8c-4.7-3.3-7.3-9.4-7.5-17.6c-0.3-11.1,3-23.8,8.7-34.1c-1.4-7.3,0.5-15.7,5-21.9c3.8-5.4,10.8-11.1,18.6-11.1c2.8,0,5.4,0.7,7.8,2.1c11.5,7,11.8,24.5,11.7,29.8c-0.2,3-0.5,5.9-1,9c4.5-1.4,8.5-3.5,11.5-5.7c0.7-0.5,1.4-0.7,2.1-0.7c1.6,0,3.1,1.2,3.8,3L347.9,119.3z M293.6,158.3c0.7,0.3,1.4,0.5,2.1,0.5c7,0,14.6-12.7,17.7-19.5c0.7-1.6,1.4-3.3,2.1-5.2c-0.3,0-0.7,0-1,0c-9.7,0-17.4-3.3-22.1-9.4c-0.2-0.2-0.3-0.3-0.5-0.5c-0.2,1-0.3,2.1-0.5,3.1c-1.4,6.8-2.8,13.7-2.3,20.7c0.3,5.9,1.7,9.2,4.2,10.3H293.6z M299.7,105.6c-1.4,4-1.2,8.2,0.5,11.5c1.6,3,4.2,5.2,7.7,6.4c2.8,0.9,5.9,1.4,9.4,1.4c0.3,0,0.7,0,1,0c0.5-2.8,0.9-5.6,1-8.4c0.9-10.4-0.7-17.9-4.7-21.6c-1-0.9-2.1-1.2-3.3-1.2c-4.9,0-10.4,7.8-11.8,12L299.7,105.6z"/>
		<path d="M414,119c1.6-3.7,7-2.3,6.1,1.7c-1.6,7.8-4.9,15.3-8.5,22.4c-2.6,5.4-5.4,11.5-9.6,15.8c-4.7,4.9-12.2,7.5-18.8,5.6c-9.2-2.8-11.5-12.9-10.4-21.4c0.2-1.2,0.3-2.4,0.5-3.7c-1.7,1.6-3.5,3.1-5.4,4.5c-4.9,3.8-11.7,5.6-17.4,2.6c-8.7-4.5-9.9-16.4-8.5-24.9c1.2-8,5-19.7,12-24.7c3.5-2.6,6.8,2.3,5.2,5.4c-2.6,5.7-4.3,12.5-5.6,18.8c-0.7,4-2.1,13.4,2.4,15.8c3.1,1.6,7.5-2.6,9.9-4.7c6.1-5.2,10.4-11.5,15-17.9c2.3-6.3,4.9-12.5,8.5-17.7c3-4.2,8.7-1.4,8,3.3c-2.1,13.2-7.5,26.1-11,39c-0.9,3.5-2.1,7.7-1.4,11.3c0.3,1.7,1.2,2.8,1.4,3c2.4,1.2,6.3-0.2,8.7-2.6c8.5-8.4,14.1-20.5,18.4-31.3L414,119z"/>
		<path d="M451.2,118.5c1.6-2.1,5.2-0.9,4.5,1.9c-2.6,9.7-8.7,18.8-15,26.4c-5.7,7.1-15,22.1-26.1,16.5c-10.3-5.2-6.6-20.9-5.2-29.8c1.7-11.7,5.6-23,10.1-33.8c3-6.8,14.1-4.2,11.7,3.3c-3,8.5-6.4,16.9-8.9,25.6c-1,3.8-1.9,7.7-2.6,11.5c-0.7,3.1-3.1,10.1-1.2,13c2.6,4.4,16.2-11.1,19-14.3c5.4-6.3,8.9-13.6,13.6-20.2L451.2,118.5z M431.8,88c-3.1,3.5-8.4-0.2-7.5-4.4c0.7-3.5,1.9-6.8,3.3-9.9c1.4-3.1,2.8-7,5.4-9.2c3.3-2.8,9.9-1.4,9.4,3.8c-0.5,7-6.3,14.4-11,19.5L431.8,88z"/>
		<path d="M507.1,117.1c4.2-2.6,8,4,3.8,6.6c-11.7,7.1-22.8,15.1-33.6,23.3c5.2,5.6,10.4,11,14.1,17.7c4.7,9,6.3,19.7,1.6,29.1c-4.2,8.4-12.9,14.3-22.3,14.6c-20.9,1-33.9-21.2-27-39.8c3.1-8.4,10.6-14.8,18.1-20.4c-2.4-3-4.7-5.9-6.6-9.2c-4.3-7.3-7-16.4-4.5-24.7c2.1-7.3,7.8-13.2,15.5-13.7c4.2-0.3,5.7,5.9,2.1,7.8c-11.8,6.3-6.1,20.5,0.2,28.7c1,1.2,2.1,2.4,3.1,3.7c11.5-8.4,23.1-16.7,35.3-24L507.1,117.1z M482.7,186.1c3.3-9.4-3.7-19-9.4-25.6c-1.7-2.1-3.7-4.2-5.6-6.3c-6.8,5.2-13.7,11.3-15.5,19c-1.9,8.7,1.6,19.1,10.4,22.3c8,3,17.1-1.2,19.8-9.4H482.7z"/>
		<path d="M99,311.1c8.7,14.3,14.8,31.8,13.4,48.7c-1,14.4-9.9,32.4-25.2,36.4c-15,3.8-24.4-12.5-23.5-25.4c1-15.8,12.9-27.5,24.9-36.4c3.5-2.6,7.3,3,4.5,5.9c-7.8,8-18.1,16.2-19.8,28c-0.7,4.9,0,10.3,3.1,14.3c4.2,5.2,9.6,3.8,14.1-0.2c17.7-15.7,11.8-42.1,2.3-61.2c-9.6,11.8-22.6,22.4-37.4,25.4c-15,3-30.6-1.4-39.1-14.6c-8.9-13.6-7-30.8-0.2-44.7c6.6-13.9,18.3-25.6,32.4-31.7c13.9-6.1,32.9-7.3,45.9,1.6c2.6,1.7,1,5.7-2.1,5c-8.7-2.1-16.9-3.8-25.8-2.3c-8,1.4-15.5,4.5-21.9,9.4c-12.7,9.2-23.1,25.1-23,41.1c0.2,16.5,13.4,27.7,29.8,24.9c16.7-3,26.3-16.5,37.2-27.8c3.3-3.5,8.7-1,9.9,2.8c0.3,0.3,0.5,0.7,0.7,1L99,311.1z"/>
		<path d="M198,309.3c0.5,1.6,0.2,3.1-1,4.2c-4.5,4-10.8,7-18.6,8.9c-1.2,4.5-2.8,8.9-4.7,12.9c-4.9,9.9-16.2,24.7-27.8,24.7c-3,0-5.7-0.9-8.4-2.8c-4.7-3.3-7.3-9.4-7.5-17.6c-0.3-11.1,3-23.8,8.7-34.1c-1.4-7.3,0.5-15.7,5-21.9c3.8-5.4,10.8-11.1,18.6-11.1c2.8,0,5.4,0.7,7.8,2.1c11.5,7,11.8,24.5,11.7,29.8c-0.2,3-0.5,5.9-1,9c4.5-1.4,8.5-3.5,11.5-5.7c0.7-0.5,1.4-0.7,2.1-0.7c1.6,0,3.1,1.2,3.8,3L198,309.3z M143.7,348.3c0.7,0.3,1.4,0.5,2.1,0.5c7,0,14.6-12.7,17.7-19.5c0.7-1.6,1.4-3.3,2.1-5.2c-0.3,0-0.7,0-1,0c-9.7,0-17.4-3.3-22.1-9.4c-0.2-0.2-0.3-0.3-0.5-0.5c-0.2,1-0.3,2.1-0.5,3.1c-1.4,6.8-2.8,13.7-2.3,20.7c0.3,5.9,1.7,9.2,4.2,10.3H143.7z M149.8,295.6c-1.4,4-1.2,8.2,0.5,11.5c1.6,3,4.2,5.2,7.7,6.4c2.8,0.9,5.9,1.4,9.4,1.4c0.3,0,0.7,0,1,0c0.5-2.8,0.9-5.6,1-8.4c0.9-10.4-0.7-17.9-4.7-21.6c-1-0.9-2.1-1.2-3.3-1.2c-4.9,0-10.4,7.8-11.8,12L149.8,295.6z"/>
		<path d="M249.1,294.7c-0.7,4.7-1.2,9.6-1.7,14.4c-1.4,12-2.8,27.8,4.5,38.3c2.6,3.7,3.8,3.7,7.1,1c4.7-3.7,7.8-9.4,10.6-14.4c3.1-5.6,5.9-11.5,8.5-17.4c0.9-2.1,1.7-4.2,2.6-6.3c0.3-0.7,1.4-3.1,0.7-1.4c2.1-5.6,11-3.1,8.9,2.4c-5,13.9-10.4,27.8-19.8,39.5c-4,5-9.7,10.4-16.7,9.4c-9.9-1.4-14.1-13.7-15.7-22.1c-1.6-8-1.6-16.2-0.9-24.4c-0.2,0.3-0.3,0.7-0.5,1c-4.5,5.9-9.9,12-16.4,15.8c-13.2,8.2-28.4-2.8-29.6-17.1c-1.2-14.1,8.7-27.8,21.7-32.4c9-3.1,21.9-0.9,28.4,6.8c2.6-17.2,6.6-34.3,13-50.6c4.9-12.4,11.1-27,24.2-32.4c5.7-2.4,13.4-2.8,18.4,1.4c5.4,4.5,6.1,12.2,5.7,18.8c-1.2,31.7-27,54.8-52.9,69.4H249.1z M230.7,303.4c1.7-2.8,3.1-5.7,4.7-8.7c-5.7-3.3-11.7-5.2-18.6-2.8c-8,3-14.6,11.1-14.4,19.8c0.2,4.2,2.4,8.9,7,9.7c4.7,0.9,9-4.2,12.2-7.1c3.5-3.5,6.4-7.3,9-11.5L230.7,303.4z M254.4,265.8c-1.7,7.3-3.1,14.8-4.4,22.3c21.1-16.7,44.4-37.4,42.1-66.6c-0.3-4-0.9-8-5.7-8.4c-2.6-0.2-5.4,1-7.7,2.4c-4.7,3-8,7.8-10.6,12.7c-6.4,11.7-10.4,24.9-13.6,37.8L254.4,265.8z"/>
		<path d="M356.1,307.8c3-4.5,10.3-0.2,7.7,4.7c0.5-1,0,0-0.5,1c-0.5,1-1,2.1-1.6,3.1c-1.9,3.5-4,7-6.1,10.4c-6.1,9.9-12.7,19.5-19.8,28.5c-8.5,10.8-26.6,33.9-43.2,25.2c-9.6-5-12.4-18.3-13.6-28c-1.6-12.5,0.2-24.9,2.1-37.4c1.9-11.8,4.2-23.7,7.8-35.1c6.3-19.8,16.2-39.1,31.8-53.1c6.6-5.9,15.5-12,24.7-9.7c9,2.1,13.6,11.1,13,19.8c-0.9,17.4-12.9,35.7-25.1,47.5c-11.8,11.5-26.4,19.8-41.9,25.2c-0.5,3.3-1,6.6-1.6,9.9c-2.3,15.1-4.7,34.1,3.5,48c3,5,6.1,5.9,11,4c6.8-2.8,12.5-8.9,17.4-14.3c6.1-6.8,11.7-14.1,16.9-21.6c4.5-6.4,8.7-13,12.7-19.8c1.2-2.1,2.4-4.2,3.8-6.1c0.3-0.5,0.7-1,1-1.6c0.3-0.7,0.5-0.9,0.5-0.9H356.1z M291.6,305.5c13.9-7,27.1-15.3,37.6-27c5.7-6.6,10.6-13.9,14.3-21.9c3.3-7.3,10.3-23,1.6-28.9c-8-5.6-19.3,6.6-24.2,11.8c-6.1,6.4-11,13.7-15,21.6C298.7,275.1,294.5,290.2,291.6,305.5z M356.8,307.9v0.2V307.9z"/>
		<path d="M414.3,308.6c2.6-4.5,9.6-0.5,7,4c1-1.7,0,0.2-0.3,0.7c-0.3,0.7-0.7,1.4-1,2.1c-1.2,2.3-2.6,4.3-4,6.4c-4.2,6.3-8.9,12.4-13.9,18.1c-7.5,8.4-19.1,20.2-31.7,17.4c-21.8-4.7-18.8-35.5-12.5-50.6c4-9.6,9.9-19.3,18.4-25.2c7-4.9,18.4-7.1,23.7,1.4c5.4,8.7-2.6,20.2-8.4,26.4c-7.8,8.5-17.4,15.5-27.5,21.1c-0.7,0.3-1.2,0.3-1.7,0.2c0,0.7,0,1.4,0,2.1c0.5,6.3,3.5,15.8,11.3,15.8c3.8,0,7.5-2.4,10.4-4.5c8.2-5.9,14.6-14.3,20.5-22.3c2.3-3.3,4.5-6.6,6.8-9.9c0.7-0.9,1.4-1.7,2.1-2.6c0.3-0.5,1.4-2.3,0.5-0.9L414.3,308.6z M382.4,289c-12,7.3-19.5,24.4-20,38.8c8.5-6.1,16.5-13,23.1-21.2c3-3.7,5.7-7.8,7-12.5c2.1-8.2-4.7-8.2-10.1-4.9V289z"/>
		<path d="M538.8,305.7c3.3-2.4,8,2.4,5.7,5.7c-6.1,8.7-18.4,16.2-30.1,17.2c-1.2,3.7-2.6,7.3-4,11c-5.7,14.3-21.1,47.8-41.9,33.8c-7.8-5.2-11.7-15.1-13.4-24c-0.5-3-1-6.1-1.4-9.2c-0.7,1.4-1.4,2.8-2.1,4.2c-5.9,10.8-15.5,22.6-29.4,19.7c-13.4-2.8-15-17.6-14.4-28.9c0.7-13.9,5.2-28.7,14.1-39.5c1.9-2.3,4.9,0.7,3.8,3c-4.7,10.6-9,20.9-9.7,32.7c-0.3,7.1-1.2,23,9,23.7c10.6,0.7,16.4-12.4,20-20.2c3.7-7.8,6.3-16.2,7.1-24.9c0.5-4.9,8.2-7,9.6-1.9c0.3,0.3,0.5,0.9,0.5,1.6c0,1,0,2.1,0,3.1c0,1.4,0,2.8-0.2,4.2c-0.5,9.2-1.2,18.3,0.9,27.7c1.6,7.1,4.4,16.7,11,20.9c13.4,8.4,24.2-21.4,27.3-29.6c1-2.4,1.9-5,2.8-7.7c-4.3-1.4-8.2-4.2-11-8.5c-6.8-10.4-8.9-25.1-6.1-37.1c2.4-10.1,12-27.3,24.7-22.1c5.2,2.1,7.5,7.7,8.5,12.9c1.6,7.8,1.7,16,1.2,24c-0.5,7.5-1.7,14.8-3.7,21.9c8-2.4,16.2-8.7,21.7-12.9L538.8,305.7z M509.3,302.9c1-6.3,1.4-12.5,1.2-18.8c-0.2-3.5,0.2-12.5-3.1-15.1c-4.2-3.3-10.1,8-11.1,11c-1.7,4.5-2.3,9.4-2.1,14.3c0.3,7.8,2.8,20.7,11,24c0.3,0.2,0.7,0.3,1,0.5c1.6-5.2,2.8-10.4,3.7-15.7L509.3,302.9z"/>
		<path d="M595.9,307.1c4.2-2.6,8,4,3.8,6.6c-11.7,7.1-22.8,15.1-33.6,23.3c5.2,5.6,10.4,11,14.1,17.7c4.7,9,6.3,19.7,1.6,29.1c-4.2,8.4-12.9,14.3-22.3,14.6c-20.9,1-33.9-21.2-27-39.8c3.1-8.4,10.6-14.8,18.1-20.4c-2.4-3-4.7-5.9-6.6-9.2c-4.4-7.3-7-16.4-4.5-24.7c2.1-7.3,7.8-13.2,15.5-13.7c4.2-0.3,5.7,5.9,2.1,7.8c-11.8,6.3-6.1,20.5,0.2,28.7c1,1.2,2.1,2.4,3.1,3.7c11.5-8.4,23.1-16.7,35.3-24L595.9,307.1z M571.6,376.1c3.3-9.4-3.7-19-9.4-25.6c-1.7-2.1-3.7-4.2-5.6-6.3c-6.8,5.2-13.7,11.3-15.5,19c-1.9,8.7,1.6,19.1,10.4,22.3c8,3,17.1-1.2,19.8-9.4H571.6z"/>
		<path d="M662.2,309c1.6-3.3,6.3-1.4,6.4,1.7c0.3,7.1-4.2,15.8-7.1,22.1c-3.7,8-8.5,16-15.1,21.7c-6.8,5.9-15.8,9.4-24.4,5c-8.2-4.2-12.4-12.7-14.3-21.4c-0.2,0-0.3,0-0.5,0c-0.3,1.7-0.7,3.5-1,5.4c0,0.7,0,1.4,0.2,2.1c0.2,1.7-0.3,3.1-1.4,4.2c-0.2,0.2-0.3,0.2-0.5,0.2c-2.4,2.1-6.8,1.9-7.5-2.3c-4.9-27.5-0.5-55.7,4.7-82.8c4.2-21.4,10.4-43,25.2-59.5c6.3-7,15.3-15,25.1-15.5c9.7-0.5,15.5,7,16.7,16c2.6,20.7-5,44-15.8,61.4c-11.3,18.1-29.2,34.3-47.8,44.9c-0.2,3.1-0.3,6.3-0.3,9.4c4.7-7.8,12.2-13.9,20.4-14.3c9.7-0.3,13.6,10.6,8.9,18.1c-3.8,6.3-12,9.9-19.8,11.3c3.3,7,7.7,14.4,15.3,14.4c5.9,0,11.3-5.2,15-9.2c4.5-5.2,8-11.3,11-17.4c2.6-5.2,3.8-11,6.3-16L662.2,309z M608.8,282.2c-1.2,7.5-2.3,15-3,22.6c6.3-5.9,13-11.3,19.1-17.4c7.8-7.7,14.8-16,20.4-25.4c9-15.5,15-34.6,13.9-52.7c-0.3-4.5-1.7-9.4-7.3-8.9c-4,0.3-8.4,3.7-11.3,6.1c-6.8,5.6-12.2,12.5-16.4,20.2c-9.2,16.9-12.4,36.5-15.5,55.3V282.2z M617.3,321c-2.4,2.1-4.3,4.4-5.9,6.8c4.9-0.7,9.9-2.1,13.6-5.2c2.3-1.9,3.3-5.6-0.9-5.2c-2.3,0.2-5,2.4-6.8,3.8V321z"/>
		<path d="M698.4,308.5c1.6-2.1,5.2-0.9,4.5,1.9c-2.6,9.7-8.7,18.8-15,26.4c-5.7,7.1-15,22.1-26.1,16.5c-10.3-5.2-6.6-20.9-5.2-29.8c1.7-11.7,5.6-23,10.1-33.8c3-6.8,14.1-4.2,11.7,3.3c-3,8.5-6.4,16.9-8.9,25.6c-1,3.8-1.9,7.7-2.6,11.5c-0.7,3.1-3.1,10.1-1.2,13c2.6,4.4,16.2-11.1,19-14.3c5.4-6.3,8.9-13.6,13.6-20.2L698.4,308.5z M678.9,278c-3.1,3.5-8.4-0.2-7.5-4.4c0.7-3.5,1.9-6.8,3.3-9.9c1.4-3.1,2.8-7,5.4-9.2c3.3-2.8,9.9-1.4,9.4,3.8c-0.5,7-6.3,14.4-11,19.5L678.9,278z"/>
	</g>

</svg>
