<svg xmlns="http://www.w3.org/2000/svg" xmlns:xlink="http://www.w3.org/1999/xlink" version="1.1" x="0px" y="0px" viewBox="0 0 124 143.95875" enable-background="new 0 0 124 115.167" xml:space="preserve"><g><polygon points="106.024,31.136 70.815,48.741 70.815,31.136  "/><polygon points="35.498,66.4 9.105,79.596 9.105,66.4  "/><polygon points="53.184,66.427 53.184,84.031 17.976,84.031  "/><polygon points="114.895,66.4 114.895,79.596 88.502,66.4  "/><polygon points="70.815,66.427 106.024,84.031 70.815,84.031  "/><polygon points="9.105,35.572 35.498,48.768 9.105,48.768  "/><polygon points="53.184,31.136 53.184,48.741 17.976,31.136  "/><polygon points="114.895,35.572 114.895,48.768 88.502,48.768  "/></g><g><polygon points="114.895,31.136 114.895,33.601 84.56,48.768 74.704,48.768 109.967,31.136  "/><polygon points="49.296,48.768 39.44,48.768 9.105,33.601 9.105,31.136 14.034,31.136  "/><polygon points="49.296,66.4 14.034,84.031 9.105,84.031 9.105,81.567 39.44,66.4  "/><polygon points="114.895,81.567 114.895,84.031 109.967,84.031 74.704,66.4 84.56,66.4  "/></g><g><polygon points="114.895,53.176 114.895,61.992 66.408,61.992 66.408,84.031 57.593,84.031 57.593,61.992 9.105,61.992    9.105,53.176 57.593,53.176 57.593,31.136 66.408,31.136 66.408,53.176  "/></g></svg>