<svg xmlns="http://www.w3.org/2000/svg" xmlns:xlink="http://www.w3.org/1999/xlink" viewBox="0 0 92 92" version="1.1" x="0px" y="0px"><g stroke="none" stroke-width="1" fill-rule="evenodd"><g transform="translate(-62.000000, -363.000000)"><path d="M125.538245,385.464559 L147.098282,364.170684 C148.678705,362.609772 151.237292,362.609772 152.817715,364.170684 C154.394095,365.731596 154.394095,368.254605 152.817715,369.815517 L131.253636,391.113384 C140.396643,401.784275 135.049075,407.125708 128.521242,413.572954 L102.797944,388.163221 C109.325777,381.719967 114.729933,376.434423 125.538245,385.464559 L125.538245,385.464559 Z M110.340319,421.365538 L116.055709,415.720705 C116.851984,414.942245 116.851984,413.676748 116.055709,412.898288 C115.267519,412.119828 113.990246,412.119828 113.198014,412.898288 L107.482624,418.543121 L98.9095382,410.075872 L104.624929,404.427046 C105.413119,403.648586 105.413119,402.387082 104.624929,401.60463 C103.836738,400.82617 102.555424,400.82617 101.767233,401.60463 L96.0518431,407.253455 L88.9055841,400.195418 L87.4787575,401.60463 C80.9590088,408.043891 74.2654541,414.694734 84.7382804,426.890608 L63.1822855,448.184483 C61.6059048,449.745395 61.6059048,452.268404 63.1822855,453.829316 C64.7627081,455.390228 67.3212952,455.390228 68.8976758,453.829316 L90.4536708,432.539433 C102.806028,442.882971 109.540003,436.272049 116.055709,429.836779 L117.486578,428.423575 L110.340319,421.365538 Z"></path></g></g></svg>