<svg xmlns="http://www.w3.org/2000/svg" xmlns:xlink="http://www.w3.org/1999/xlink" version="1.1" x="0px" y="0px" viewBox="0 0 1024 1280" style="enable-background:new 0 0 1024 1024;" xml:space="preserve"><g><path d="M887.6,83.8H136.4c-23.1,0-41.8,18.8-41.8,41.8v204.6c0,23.1,18.8,41.8,41.8,41.8h751.3   c23.1,0,41.8-18.8,41.8-41.8V125.7C929.4,102.6,910.7,83.8,887.6,83.8z M262.7,288.4c-33.3,0-60.5-27.1-60.5-60.4   c0-33.3,27.1-60.5,60.5-60.5s60.4,27.1,60.4,60.5C323.1,261.3,296,288.4,262.7,288.4z M615.5,248h-91.1v-40h91.1V248z M806.3,248   h-91.1v-40h91.1V248z"/><path d="M887.6,432.6H136.4c-23.1,0-41.8,18.8-41.8,41.8V679c0,23.1,18.8,41.8,41.8,41.8H492v101.9   c-17.3,6.1-31,20-37,37.3H278.7v40h176.5c8.4,23.3,30.8,40.1,56.9,40.1s48.5-16.8,56.9-40.1h176.2v-40h-176   c-6-17.5-19.8-31.3-37.3-37.4V720.8h355.6c23.1,0,41.8-18.8,41.8-41.8V474.4C929.4,451.4,910.7,432.6,887.6,432.6z M262.7,637.2   c-33.3,0-60.5-27.1-60.5-60.4s27.1-60.5,60.5-60.5s60.4,27.1,60.4,60.5S296,637.2,262.7,637.2z M615.5,596.7h-91.1v-40h91.1V596.7z    M806.3,596.7h-91.1v-40h91.1V596.7z"/></g></svg>