<svg xmlns="http://www.w3.org/2000/svg" xmlns:xlink="http://www.w3.org/1999/xlink" xml:space="preserve" style="shape-rendering:geometricPrecision;text-rendering:geometricPrecision;image-rendering:optimizeQuality;" viewBox="0 0 0.271622 0.3780175" x="0px" y="0px" fill-rule="evenodd" clip-rule="evenodd"><defs><style type="text/css">

  </style></defs><g><circle class="fil0" cx="0.135812" cy="0.161804" r="0.0344472"/><path class="fil0" d="M0.168774 0.189042c0.0262209,0.0125907 0.046855,0.0858989 0.042162,0.113372l-0.150246 0c-0.00469692,-0.0274728 0.0159372,-0.100781 0.042162,-0.113372 0.00784263,0.00948045 0.0196971,0.0155199 0.0329611,0.0155199 0.01326,0 0.0251145,-0.00603946 0.0329611,-0.0155199z"/><circle class="fil0" cx="0.205975" cy="0.130928" r="0.0298359"/><path class="fil0" d="M0.234523 0.154518c0.0227129,0.0109096 0.0405833,0.0744027 0.0365163,0.0981983l-0.0570756 0c-0.00781507,-0.0299611 -0.0226499,-0.0610993 -0.0405124,-0.0706113 0.00326776,-0.00603946 0.00511818,-0.0129569 0.00511818,-0.0202995 0,-0.0022205 -0.000169294,-0.0043977 -0.00049607,-0.00652765 0.00679144,0.00777177 0.0167719,0.0126852 0.027902,0.0126852 0.0114844,0 0.0217523,-0.00523236 0.0285477,-0.0134451z"/><circle class="fil0" cx="0.0656457" cy="0.130928" r="0.0298359"/><path class="fil0" d="M0.037099 0.154518c-0.0227129,0.0109096 -0.0405872,0.0744027 -0.0365202,0.0981983l0.0570796 0c0.00781507,-0.0299611 0.0226539,-0.0610993 0.0405124,-0.0706113 -0.00326383,-0.00603946 -0.00511818,-0.0129569 -0.00511818,-0.0202995 0,-0.0022205 0.000173231,-0.00440164 0.00049607,-0.00653159 -0.00679144,0.0077757 -0.0167758,0.0126892 -0.027902,0.0126892 -0.0114884,0 -0.0217523,-0.00523236 -0.0285477,-0.0134451z"/><circle class="fil0" cx="0.135812" cy="0.0913427" r="0.0269772"/><circle class="fil0" cx="0.199623" cy="0.0653643" r="0.0269772"/><circle class="fil0" cx="0.0720019" cy="0.0653643" r="0.0269772"/><circle class="fil0" cx="0.135812" cy="0.0241472" r="0.0241472"/></g></svg>