<svg xmlns="http://www.w3.org/2000/svg" xmlns:xlink="http://www.w3.org/1999/xlink" version="1.1" x="0px" y="0px" viewBox="0 0 100 125" enable-background="new 0 0 100 100" xml:space="preserve">
    <g>
        <rect x="24" y="46" width="15" height="16"/>
        <path d="M87,28v-8c0-4.418-3.582-8-8-8H20c-4.418,0-8,3.582-8,8v8H87z M77.566,18.533c1.547,0,2.801,1.254,2.801,2.8    c0,1.546-1.254,2.8-2.801,2.8c-1.546,0-2.799-1.253-2.799-2.8C74.768,19.787,76.021,18.533,77.566,18.533z M67.566,18.533    c1.547,0,2.801,1.254,2.801,2.8c0,1.546-1.254,2.8-2.801,2.8c-1.546,0-2.799-1.253-2.799-2.8    C64.768,19.787,66.021,18.533,67.566,18.533z M57.566,18.533c1.547,0,2.801,1.254,2.801,2.8c0,1.546-1.254,2.8-2.801,2.8    c-1.546,0-2.799-1.253-2.799-2.8C54.768,19.787,56.021,18.533,57.566,18.533z M19,20h16c1.104,0,2,0.896,2,2s-0.896,2-2,2H19    c-1.104,0-2-0.896-2-2S17.896,20,19,20z"/>
        <path d="M12,32v47c0,4.418,3.582,8,8,8h59c4.418,0,8-3.582,8-8V32H12z M20,44c0-1.104,0.896-2,2-2h19c1.104,0,2,0.896,2,2v20    c0,1.104-0.896,2-2,2H22c-1.104,0-2-0.896-2-2V44z M78,77H21c-1.104,0-2-0.896-2-2s0.896-2,2-2h57c1.104,0,2,0.896,2,2    S79.104,77,78,77z M78,62H53c-1.104,0-2-0.896-2-2s0.896-2,2-2h25c1.104,0,2,0.896,2,2S79.104,62,78,62z M78,47H53    c-1.104,0-2-0.896-2-2s0.896-2,2-2h25c1.104,0,2,0.896,2,2S79.104,47,78,47z"/>
    </g>
</svg>