<svg xmlns="http://www.w3.org/2000/svg" xmlns:xlink="http://www.w3.org/1999/xlink" version="1.1" x="0px" y="0px" viewBox="0 0 100 125" enable-background="new 0 0 100 100" xml:space="preserve">
    <path d="M49.357,15.759c-10.318,0-18.711,8.394-18.711,18.711c0,10.317,8.393,18.71,18.711,18.71  c10.318,0,18.712-8.394,18.712-18.71C68.069,24.153,59.676,15.759,49.357,15.759z M46.77,44.36l-8.771-8.77l3.66-3.656l5.111,5.113  l12.466-12.465l3.655,3.657L46.77,44.36z"/>
    <path d="M75.314,30.942c-0.565-5.68,2.045-7.284-0.094-11.551c-2.139-4.265-5.896-2.686-10.002-5.771  C61.11,10.538,62.46,6.77,56.984,5.52c-5.478-1.248-5.609,2.199-11.154,2.994c-5.545,0.795-7.092-2.77-11.549,0.093  c-4.457,2.863-1.488,4.278-5.772,10.004s-6.623,2.623-8.102,8.231c-1.476,5.61,2.562,5.705,2.993,11.155  c0.434,5.451-2.939,6.273,0.094,11.55c3.033,5.276,5.545,1.822,10.004,5.771c4.459,3.951,1.042,6.014,8.232,8.102  c7.189,2.088,5.154-1.933,11.156-2.992c6.002-1.062,6.224,3.121,11.55-0.093c5.323-3.216,2.64-5.718,5.771-10.006  c3.13-4.287,6.525-2.262,8.1-8.231C79.881,36.125,75.879,36.621,75.314,30.942z M43.877,55.277  C32.383,52.25,25.522,40.479,28.55,28.989c3.026-11.492,14.798-18.353,26.29-15.327C66.331,16.69,73.192,28.46,70.164,39.953  C67.136,51.444,55.369,58.306,43.877,55.277z"/>
    <g>
        <path d="M27.526,64.025l-9.75,21.678l14.35-6.777l4.58,15.376l9.96-22.802C39.363,70.555,34,69,27.526,64.025z"/>
        <path d="M73.611,63.021c-6.35,4.78-11.505,6.95-19.316,7.961l10.132,23.32l4.585-15.376l14.351,6.777L73.611,63.021   z"/>
    </g>
</svg>