<svg width="276" height="276" viewBox="0 0 276 276" fill="none" xmlns="http://www.w3.org/2000/svg">
  <g filter="url(#filter0_d_6_199)">
    <path
      d="M250.677 138C250.677 200.23 200.23 250.677 138 250.677C75.7709 250.677 25.3239 200.23 25.3239 138C25.3239 75.7705 75.7709 25.3235 138 25.3235C200.23 25.3235 250.677 75.7705 250.677 138Z"
      fill="#031657" />
    <g filter="url(#filter1_d_6_199)">
      <path fill-rule="evenodd" clip-rule="evenodd"
        d="M29.1626 108.837C13.0564 168.946 48.7278 230.731 108.837 246.837C90.647 199.839 137.093 141.604 137.093 141.604C137.093 141.604 188.728 70.9921 167.163 29.1628C107.053 13.0566 45.2688 48.7281 29.1626 108.837Z"
        fill="#EFF3F8" />
    </g>
    <path
      d="M225.376 137.256C220.397 132.517 214.879 130.147 208.822 130.147C197.228 130.147 187.753 135.574 180.395 146.427C176.122 152.722 173.985 159.415 173.985 166.505C173.985 172.149 175.435 176.78 178.333 180.397C181.454 184.341 186.174 186.312 192.49 186.312C197.47 186.312 202.3 184.793 206.982 181.754C211.664 178.679 215.102 174.627 217.294 169.598L225.376 169.49C221.623 186.168 215.009 199.173 205.533 208.507C196.095 217.841 184.836 222.507 171.756 222.507C164.956 222.507 159.717 221.151 156.038 218.437C152.359 215.724 150.52 212.468 150.52 208.67C150.52 204.907 152.359 201.633 156.038 198.848C159.717 196.026 164.752 194.615 171.143 194.615C177.497 194.615 182.532 196.026 186.248 198.848L183.851 203.623C180.433 202.212 176.401 201.507 171.756 201.507C167.111 201.507 163.247 202.248 160.162 203.731C157.078 205.251 155.536 207.114 155.536 209.321C155.536 211.528 157.023 213.409 159.995 214.964C163.005 216.52 167.223 217.298 172.648 217.298C181.306 217.298 189.183 213.988 196.281 207.367C203.415 200.783 209.491 191.106 214.507 178.335C211.423 182.568 207.67 185.806 203.248 188.049C198.826 190.292 194.553 191.413 190.428 191.413C186.341 191.413 182.718 190.907 179.559 189.894C176.438 188.845 173.632 187.361 171.143 185.444C168.69 183.49 166.721 180.958 165.235 177.847C163.785 174.699 163.061 171.172 163.061 167.265C163.061 163.358 163.711 159.433 165.012 155.489C166.349 151.51 168.337 147.729 170.976 144.148C173.614 140.566 176.717 137.383 180.284 134.597C183.888 131.811 188.143 129.605 193.048 127.977C197.953 126.312 203.136 125.48 208.599 125.48C213.95 125.48 219.022 126.71 223.815 129.17C226.193 130.364 228.126 132.028 229.612 134.163C231.136 136.297 231.897 138.739 231.897 141.489C231.897 144.238 231.061 146.373 229.389 147.892C227.717 149.375 225.822 150.117 223.704 150.117C221.623 150.117 219.895 149.574 218.52 148.489C217.145 147.404 216.458 145.92 216.458 144.039C216.458 139.517 219.431 137.256 225.376 137.256Z"
      fill="#EFF3F8" />
    <path
      d="M133.083 69.3606C133.083 59.9383 128.99 55.2272 120.802 55.2272C117.253 55.2272 114.188 56.4105 111.607 58.777C109.025 61.1435 107.029 64.1893 105.617 67.9144C104.206 71.6394 102.814 76.1314 101.443 81.3903C100.112 86.6493 98.922 91.8643 97.8734 97.0356C95.2518 109.788 91.5412 120.416 86.7417 128.918C88.1936 129.619 90.4119 130.758 93.3965 132.336C96.3811 133.87 98.7808 135.075 100.596 135.952C105.678 138.45 110.134 139.699 113.966 139.699C115.66 139.699 117.253 139.238 118.745 138.318C120.238 137.398 121.367 136.412 122.133 135.36C122.94 134.264 123.626 133.256 124.19 132.336C124.795 131.416 125.158 130.956 125.279 130.956L128.002 132.665C124.452 139.94 120.701 144.454 116.749 146.206C114.974 146.995 112.695 147.39 109.913 147.39C107.13 147.39 104.064 146.842 100.717 145.746C97.4095 144.695 93.6788 143.161 89.5246 141.145C85.4107 139.129 82.5068 137.792 80.8128 137.135C77.5862 140.159 73.4522 142.635 68.4106 144.563C63.4094 146.448 57.6621 147.39 51.1686 147.39C47.9017 147.39 44.9372 146.732 42.2753 145.418C37.2338 142.876 34.713 139.655 34.713 135.754C34.713 131.854 35.8222 128.567 38.0404 125.894C42.2753 120.81 48.1437 118.268 55.6455 118.268C61.0097 118.268 66.6763 119.474 72.6455 121.884C74.8235 122.804 77.6669 124.075 81.1758 125.697C82.9101 120.482 84.3822 114.478 85.5922 107.685C86.8022 100.892 87.9315 95.2826 88.9801 90.8564C90.0287 86.3863 91.0975 82.2887 92.1865 78.5637C93.3158 74.7948 94.7678 71.1354 96.5424 67.5857C98.3574 64.0359 100.354 61.012 102.532 58.514C107.331 53.0798 113.583 50.3627 121.286 50.3627C127.134 50.3627 131.894 52.2033 135.564 55.8846C139.274 59.5658 141.13 64.7371 141.13 71.3984C141.13 76.3505 140.202 81.1712 138.347 85.8604C136.532 90.5058 134.112 94.6034 131.087 98.1531C128.062 101.703 124.553 104.705 120.56 107.159C116.608 109.613 112.514 111.235 108.279 112.024L107.432 108.408C112.353 107.093 116.789 104.42 120.742 100.388C124.694 96.3125 127.739 91.5576 129.877 86.1234C132.015 80.6453 133.083 75.0577 133.083 69.3606ZM38.5244 134.966C38.5244 138.428 40.5007 140.75 44.4533 141.934C52.6407 144.388 60.7878 143.621 68.8946 139.633C71.9195 138.099 74.2386 136.193 75.8519 133.914C67.7855 127.997 60.4652 125.039 53.891 125.039C43.6466 125.039 38.5244 128.348 38.5244 134.966Z"
      fill="#031657" />
  </g>
  <defs>
    <filter id="filter0_d_6_199" x="20.2953" y="21.2955" width="235.382" height="235.381"
      filterUnits="userSpaceOnUse" color-interpolation-filters="sRGB">
      <feFlood flood-opacity="0" result="BackgroundImageFix" />
      <feColorMatrix in="SourceAlpha" type="matrix"
        values="0 0 0 0 0 0 0 0 0 0 0 0 0 0 0 0 0 0 127 0" result="hardAlpha" />
      <feOffset dy="1" />
      <feGaussianBlur stdDeviation="2.5" />
      <feComposite in2="hardAlpha" operator="out" />
      <feColorMatrix type="matrix" values="0 0 0 0 0 0 0 0 0 0 0 0 0 0 0 0 0 0 0.35 0" />
      <feBlend mode="normal" in2="BackgroundImageFix" result="effect1_dropShadow_6_199" />
      <feBlend mode="normal" in="SourceGraphic" in2="effect1_dropShadow_6_199" result="shape" />
    </filter>
    <filter id="filter1_d_6_199" x="24.2953" y="24.2955" width="149.134" height="223.542"
      filterUnits="userSpaceOnUse" color-interpolation-filters="sRGB">
      <feFlood flood-opacity="0" result="BackgroundImageFix" />
      <feColorMatrix in="SourceAlpha" type="matrix"
        values="0 0 0 0 0 0 0 0 0 0 0 0 0 0 0 0 0 0 127 0" result="hardAlpha" />
      <feOffset />
      <feGaussianBlur stdDeviation="0.5" />
      <feComposite in2="hardAlpha" operator="out" />
      <feColorMatrix type="matrix"
        values="0 0 0 0 0.0117647 0 0 0 0 0.0862745 0 0 0 0 0.341176 0 0 0 1 0" />
      <feBlend mode="normal" in2="BackgroundImageFix" result="effect1_dropShadow_6_199" />
      <feBlend mode="normal" in="SourceGraphic" in2="effect1_dropShadow_6_199" result="shape" />
    </filter>
  </defs>
</svg>
