<?xml version="1.0" standalone="no"?>
<!DOCTYPE svg PUBLIC "-//W3C//DTD SVG 20010904//EN"
 "http://www.w3.org/TR/2001/REC-SVG-20010904/DTD/svg10.dtd">
<svg version="1.0" xmlns="http://www.w3.org/2000/svg"
 width="1104.000000pt" height="1104.000000pt" viewBox="0 0 1104.000000 1104.000000"
 preserveAspectRatio="xMidYMid meet">
<metadata>
Created by potrace 1.14, written by Peter Selinger 2001-2017
</metadata>
<g transform="translate(0.000000,1104.000000) scale(0.100000,-0.100000)"
fill="#000000" stroke="none">
<path d="M6690 9866 c0 -4 13 -33 29 -64 130 -258 197 -668 172 -1052 -38
-566 -215 -1177 -546 -1890 -236 -508 -603 -1133 -905 -1540 -262 -354 -483
-718 -695 -1145 -380 -767 -557 -1420 -557 -2055 -1 -337 38 -585 139 -881
l25 -76 137 -32 c362 -85 636 -115 1036 -115 418 0 707 35 1085 130 1034 259
1930 865 2563 1733 188 257 384 605 507 901 255 611 377 1311 342 1956 -37
659 -184 1226 -468 1793 -538 1079 -1471 1889 -2609 2266 -194 64 -255 81
-255 71z m1820 -3856 c171 -21 378 -92 498 -170 186 -120 289 -326 262 -520
-17 -122 -75 -200 -187 -252 -60 -28 -70 -30 -156 -26 -103 5 -150 23 -204 80
-42 44 -63 96 -63 159 0 152 86 236 268 262 l86 13 -71 58 c-99 79 -211 141
-323 178 -83 27 -113 31 -237 36 -281 9 -504 -52 -730 -200 -131 -86 -306
-258 -406 -398 -85 -120 -199 -348 -232 -465 -89 -311 -67 -642 57 -853 18
-32 67 -92 109 -134 82 -84 165 -131 284 -164 92 -25 301 -30 409 -10 329 62
631 286 781 579 l40 77 158 0 c119 0 157 -3 157 -12 0 -30 -83 -325 -125 -448
-276 -795 -780 -1356 -1405 -1564 -308 -103 -693 -125 -968 -55 -43 10 -119
40 -171 65 -118 58 -232 165 -276 259 -84 179 -46 364 106 516 114 115 279
193 467 220 126 18 416 7 514 -19 102 -28 185 -62 247 -101 l50 -33 -45 -91
c-26 -51 -48 -94 -50 -96 -1 -1 -31 6 -66 18 -166 55 -432 75 -617 47 -254
-39 -428 -144 -447 -271 -22 -148 124 -266 401 -327 39 -8 132 -13 265 -13
189 0 213 3 313 28 257 64 454 179 675 392 269 259 470 575 671 1055 l31 75
-27 -35 c-56 -72 -171 -184 -247 -242 -96 -72 -290 -169 -408 -202 -173 -50
-396 -54 -605 -10 -203 42 -402 150 -533 291 -104 111 -183 263 -216 418 -26
121 -24 348 4 492 65 331 223 615 486 878 141 141 258 228 416 309 328 169
727 246 1060 206z"/>
<path d="M4726 9020 c-257 -29 -484 -150 -642 -341 -289 -349 -453 -829 -654
-1908 -67 -363 -165 -751 -189 -751 -4 0 -80 32 -167 71 -288 129 -475 185
-693 209 -469 52 -845 -143 -967 -500 -14 -41 -19 -84 -19 -170 0 -112 1 -117
34 -178 48 -89 131 -161 255 -221 138 -68 225 -86 402 -84 426 3 827 135 1091
359 28 24 56 44 63 44 6 0 93 -39 193 -86 534 -253 728 -317 962 -317 132 -1
238 21 312 63 69 40 170 135 234 222 47 62 179 283 179 298 0 8 -111 73 -116
68 -2 -3 -35 -49 -72 -104 -119 -173 -224 -238 -387 -238 -189 0 -328 49 -756
266 l-317 161 63 126 c173 344 282 686 405 1266 98 462 215 884 304 1094 70
167 209 333 332 398 113 60 257 78 395 49 183 -39 293 -159 335 -366 24 -121
15 -378 -20 -546 -50 -239 -161 -497 -294 -684 -90 -127 -255 -291 -365 -364
-87 -58 -241 -131 -298 -143 -16 -3 -29 -11 -29 -17 1 -18 28 -128 34 -133 2
-3 41 5 87 17 264 68 498 209 725 435 194 193 329 410 415 666 117 350 110
717 -18 961 -66 126 -206 255 -340 314 -124 55 -320 81 -477 64z m-2369 -3004
c113 -24 187 -52 328 -121 116 -56 345 -197 345 -211 0 -3 -16 -26 -36 -50
-109 -133 -388 -269 -634 -309 -315 -51 -677 24 -772 160 -80 115 -52 313 58
415 104 96 285 143 524 135 63 -2 148 -11 187 -19z"/>
<path d="M2420 2236 c0 -2 8 -10 18 -17 15 -13 16 -12 3 4 -13 16 -21 21 -21
13z"/>
</g>
</svg>
