<svg width="239" height="109" viewBox="0 0 239 109" fill="none" xmlns="http://www.w3.org/2000/svg">
<g filter="url(#filter0_d_45_278)">
<path fill-rule="evenodd" clip-rule="evenodd" d="M238 4C238 1.79086 236.209 0 234 0H119.5C129.597 25.6198 123.831 38.5046 118.129 51.2489C112.034 64.8689 106.011 78.3282 119.5 107H234C236.209 107 238 105.209 238 103V4Z" fill="#031657"/>
<path d="M5 0C2.79086 0 1 1.79086 1 4V103C1 105.209 2.79086 107 5 107H119.5C106.011 78.3282 112.034 64.8689 118.129 51.2489C123.831 38.5046 129.597 25.6198 119.5 0H5Z" fill="#EFF3F8"/>
</g>
<path d="M108.69 19.5613C108.69 15.0672 106.747 12.8202 102.861 12.8202C101.177 12.8202 99.7217 13.3846 98.4965 14.5133C97.2714 15.642 96.3238 17.0948 95.6538 18.8715C94.9838 20.6482 94.3233 22.7907 93.6725 25.299C93.0407 27.8073 92.476 30.2947 91.9783 32.7612C90.734 38.8439 88.9728 43.9128 86.6948 47.9679C87.3839 48.3023 88.4368 48.8458 89.8534 49.5983C91.27 50.3298 92.409 50.9047 93.2704 51.3227C95.6825 52.5142 97.7978 53.1099 99.6164 53.1099C100.42 53.1099 101.177 52.8904 101.885 52.4515C102.593 52.0125 103.129 51.5422 103.493 51.0405C103.876 50.518 104.201 50.0372 104.469 49.5983C104.756 49.1593 104.929 48.9398 104.986 48.9398L106.278 49.755C104.594 53.2249 102.813 55.3778 100.937 56.2139C100.095 56.5902 99.0134 56.7783 97.6925 56.7783C96.3717 56.7783 94.9168 56.517 93.3279 55.9944C91.7581 55.4928 89.9874 54.7612 88.0156 53.7997C86.063 52.8382 84.6847 52.2006 83.8807 51.8871C82.3492 53.3294 80.3871 54.5104 77.9942 55.4301C75.6204 56.3289 72.8925 56.7783 69.8104 56.7783C68.2598 56.7783 66.8528 56.4648 65.5894 55.8377C63.1965 54.6253 62 53.089 62 51.2287C62 49.3683 62.5264 47.8006 63.5793 46.5256C65.5894 44.1009 68.3747 42.8885 71.9353 42.8885C74.4814 42.8885 77.171 43.4634 80.0042 44.613C81.0379 45.0519 82.3875 45.6581 84.053 46.4315C84.8761 43.9441 85.5749 41.0805 86.1492 37.8406C86.7235 34.6007 87.2595 31.9251 87.7572 29.814C88.2549 27.6819 88.7622 25.7275 89.2791 23.9508C89.8151 22.1532 90.5043 20.4078 91.3466 18.7147C92.208 17.0216 93.1556 15.5793 94.1893 14.3879C96.4674 11.796 99.4346 10.5 103.091 10.5C105.867 10.5 108.126 11.3779 109.868 13.1337C111.629 14.8895 112.509 17.356 112.509 20.5332C112.509 22.8952 112.069 25.1945 111.189 27.4311C110.327 29.6468 109.178 31.6011 107.743 33.2943C106.307 34.9874 104.642 36.4192 102.746 37.5897C100.87 38.7603 98.9273 39.5337 96.9172 39.9099L96.5152 38.1855C98.8507 37.5584 100.956 36.2833 102.832 34.3603C104.709 32.4163 106.154 30.1484 107.168 27.5565C108.183 24.9437 108.69 22.2786 108.69 19.5613ZM63.809 50.8524C63.809 52.5037 64.7471 53.6115 66.6231 54.1759C70.5092 55.3465 74.3761 54.9807 78.2239 53.0785C79.6596 52.3469 80.7604 51.4377 81.5261 50.3507C77.6974 47.5289 74.2229 46.118 71.1026 46.118C66.2402 46.118 63.809 47.6961 63.809 50.8524Z" fill="#031657"/>
<path d="M157.53 52.1165C155.166 49.8561 152.547 48.7259 149.672 48.7259C144.17 48.7259 139.672 51.3142 136.18 56.4907C134.152 59.4931 133.138 62.6853 133.138 66.0673C133.138 68.7591 133.826 70.9678 135.201 72.6933C136.683 74.5741 138.923 75.5145 141.921 75.5145C144.284 75.5145 146.577 74.7898 148.799 73.3404C151.022 71.8737 152.653 69.9411 153.694 67.5426L157.53 67.4909C155.748 75.4455 152.609 81.6487 148.111 86.1005C143.632 90.5524 138.288 92.7783 132.079 92.7783C128.852 92.7783 126.365 92.1312 124.619 90.8371C122.873 89.5429 122 87.99 122 86.1782C122 84.3837 122.873 82.8221 124.619 81.4934C126.365 80.1475 128.755 79.4746 131.788 79.4746C134.804 79.4746 137.194 80.1475 138.958 81.4934L137.82 83.7711C136.198 83.0982 134.284 82.7617 132.079 82.7617C129.875 82.7617 128.041 83.1154 126.577 83.8229C125.113 84.5476 124.381 85.4362 124.381 86.4888C124.381 87.5414 125.086 88.4386 126.497 89.1806C127.926 89.9226 129.928 90.2935 132.503 90.2935C136.612 90.2935 140.351 88.7147 143.72 85.557C147.106 82.4166 149.99 77.8008 152.371 71.7098C150.907 73.7286 149.126 75.2729 147.027 76.3428C144.928 77.4126 142.9 77.9475 140.942 77.9475C139.002 77.9475 137.282 77.7059 135.783 77.2228C134.302 76.7224 132.97 76.0149 131.788 75.1004C130.624 74.1686 129.69 72.9608 128.984 71.4768C128.296 69.9756 127.952 68.2932 127.952 66.4297C127.952 64.5661 128.261 62.6939 128.878 60.8131C129.513 58.9151 130.457 57.1119 131.709 55.4037C132.961 53.6954 134.434 52.1769 136.127 50.8483C137.838 49.5196 139.857 48.4671 142.185 47.6906C144.514 46.8969 146.974 46.5 149.566 46.5C152.106 46.5 154.514 47.0867 156.789 48.26C157.918 48.8294 158.835 49.6232 159.54 50.6412C160.263 51.6593 160.625 52.824 160.625 54.1354C160.625 55.4468 160.228 56.4648 159.434 57.1896C158.641 57.897 157.741 58.2508 156.736 58.2508C155.748 58.2508 154.928 57.9919 154.276 57.4743C153.623 56.9566 153.297 56.2492 153.297 55.3519C153.297 53.195 154.708 52.1165 157.53 52.1165Z" fill="#EFF3F8"/>
<defs>
<filter id="filter0_d_45_278" x="0" y="0" width="239" height="109" filterUnits="userSpaceOnUse" color-interpolation-filters="sRGB">
<feFlood flood-opacity="0" result="BackgroundImageFix"/>
<feColorMatrix in="SourceAlpha" type="matrix" values="0 0 0 0 0 0 0 0 0 0 0 0 0 0 0 0 0 0 127 0" result="hardAlpha"/>
<feOffset dy="1"/>
<feGaussianBlur stdDeviation="0.5"/>
<feComposite in2="hardAlpha" operator="out"/>
<feColorMatrix type="matrix" values="0 0 0 0 0 0 0 0 0 0 0 0 0 0 0 0 0 0 0.15 0"/>
<feBlend mode="normal" in2="BackgroundImageFix" result="effect1_dropShadow_45_278"/>
<feBlend mode="normal" in="SourceGraphic" in2="effect1_dropShadow_45_278" result="shape"/>
</filter>
</defs>
</svg>
